<svg width="49" height="62" viewBox="0 0 49 62" fill="none" xmlns="http://www.w3.org/2000/svg">
<path d="M15.5134 33.728H33.4866C34.3254 33.7273 35.1451 33.475 35.8423 33.003C36.5395 32.5309 37.0829 31.8604 37.4037 31.0759C37.7246 30.2915 37.8087 29.4284 37.6452 28.5956C37.4818 27.7629 37.0782 26.9978 36.4854 26.3971L33.81 23.6889V19.344C33.81 16.8446 32.8292 14.4476 31.0832 12.6802C29.3372 10.9129 26.9692 9.91998 24.5 9.91998C22.0309 9.91998 19.6628 10.9129 17.9169 12.6802C16.1709 14.4476 15.19 16.8446 15.19 19.344V23.6889L12.5146 26.3971C11.9219 26.9978 11.5183 27.7629 11.3548 28.5956C11.1914 29.4284 11.2754 30.2915 11.5963 31.0759C11.9172 31.8604 12.4606 32.5309 13.1577 33.003C13.8549 33.475 14.6747 33.7273 15.5134 33.728ZM14.5922 28.5001L18.13 24.919V19.344C18.13 17.6339 18.8012 15.9938 19.9958 14.7846C21.1904 13.5753 22.8106 12.896 24.5 12.896C26.1895 12.896 27.8097 13.5753 29.0043 14.7846C30.1989 15.9938 30.87 17.6339 30.87 19.344V24.919L34.4078 28.5001C34.5899 28.6847 34.7139 28.9197 34.7641 29.1755C34.8144 29.4313 34.7886 29.6964 34.69 29.9374C34.5914 30.1784 34.4245 30.3844 34.2103 30.5293C33.9961 30.6743 33.7443 30.7518 33.4866 30.752H15.5134C15.2558 30.7518 15.0039 30.6743 14.7898 30.5293C14.5756 30.3844 14.4087 30.1784 14.3101 29.9374C14.2115 29.6964 14.1857 29.4313 14.2359 29.1755C14.2861 28.9197 14.4101 28.6847 14.5922 28.5001Z" fill="#565656"/>
<path d="M28.42 36.704H20.58V39.68H28.42V36.704Z" fill="#565656"/>
</svg>
