<svg width="37" height="46" viewBox="0 0 37 46" fill="none" xmlns="http://www.w3.org/2000/svg">
<path d="M18.646 4.76373C18.3819 4.76107 18.1165 4.76506 17.851 4.77704C9.32894 5.13907 2.6871 12.4505 3.03524 21.0845C3.04838 21.0965 3.0602 21.1085 3.07203 21.1205C3.0602 21.1338 3.04838 21.1458 3.03655 21.1591C3.42283 29.7907 10.6612 36.4951 19.1834 36.1132C21.7954 35.996 24.2288 35.224 26.3378 33.9636L26.3391 33.9609C26.3444 33.9583 26.3496 33.9543 26.3549 33.9516C31.1178 31.0992 34.2201 25.7486 33.9665 19.7683C33.6104 11.4055 26.8186 4.83699 18.646 4.76373ZM18.6289 6.8095C25.7544 6.87073 31.6394 12.5609 31.9496 19.8561C32.1348 24.2152 30.2861 28.175 27.2563 30.8051C27.2589 30.6348 27.2576 30.4631 27.251 30.2927C27.0999 26.7361 24.8794 23.7508 21.8204 22.4768C22.7336 21.5624 23.2789 20.2766 23.2184 18.883C23.1068 16.2649 20.8994 14.2125 18.3149 14.3229C15.7304 14.4333 13.703 16.6641 13.8083 19.2823C13.811 19.2863 13.8149 19.2903 13.8188 19.293C13.8149 19.297 13.811 19.3023 13.8083 19.3063C13.8635 20.5468 14.3904 21.6582 15.2024 22.4728C14.0015 22.9706 12.9372 23.728 12.0766 24.6743C11.3197 25.5075 10.7206 26.4871 10.3211 27.5653L10.3225 27.564C10.1267 28.0924 10.3908 28.6807 10.9124 28.879C11.434 29.0773 12.0148 28.8111 12.2119 28.2827C12.518 27.4548 12.9792 26.7015 13.5626 26.0599C14.7294 24.7768 16.3704 23.9423 18.231 23.8637C21.9518 23.7054 25.0753 26.6123 25.2354 30.3818C25.2643 31.0553 25.1907 31.7274 25.0252 32.377C23.2606 33.3672 21.2502 33.9715 19.0954 34.0687C11.6625 34.4014 5.3913 28.593 5.07074 21.0313C4.74883 13.4699 10.5023 7.13825 17.9367 6.82272C18.1692 6.81208 18.4005 6.80941 18.6304 6.81074L18.6289 6.8095ZM18.5396 16.3622C19.9717 16.3741 21.1411 17.5029 21.2042 18.9709C21.2686 20.4856 20.1294 21.7435 18.6342 21.81C17.1389 21.8765 15.8933 20.7265 15.825 19.2119H15.8237C15.8237 19.2119 15.8224 19.2105 15.8211 19.2092C15.8224 19.2065 15.8237 19.2025 15.8237 19.1999C15.7619 17.6852 16.9037 16.4287 18.3989 16.3648C18.4462 16.3635 18.4922 16.3621 18.5382 16.3621L18.5396 16.3622Z" fill="#565656"/>
</svg>
